<?xml version="1.0" encoding="utf-8"?>
<!-- Generator: Adobe Illustrator 27.1.1, SVG Export Plug-In . SVG Version: 6.00 Build 0)  -->
<svg xmlns="http://www.w3.org/2000/svg" xmlns:xlink="http://www.w3.org/1999/xlink" version="1.1" id="Layer_1" x="0px" y="0px" viewBox="0 0 512 512" style="enable-background:new 0 0 512 512;" xml:space="preserve" width="512px" height="512px">
<style type="text/css">
	.st0{fill:#ff6c2d;}
</style>
<path class="st0" d="M18.6,24.6l104-24c11.3-2.6,22.9,3.3,27.5,13.9l48,112c4.2,9.8,1.4,21.3-6.9,28l-60.6,49.6  c36,76.7,98.9,140.5,177.2,177.2l49.6-60.6c6.8-8.3,18.2-11.1,28-6.9l112,48c10.7,4.7,16.6,16.3,14,27.6l-24,104  c-2.5,10.8-12.1,18.6-23.4,18.6C207.9,512,0,304.5,0,48C0,36.8,7.7,27.1,18.6,24.6z"/>
</svg>
